<?xml version="1.0" encoding="UTF-8"?>
<svg version="1.1" xmlns="http://www.w3.org/2000/svg" width="1922" height="1621">
<path d="M0 0 C11.01823058 3.90245597 21.27118826 3.15224574 32.66650391 1.54956055 C45.85696518 -0.19528559 59.06121585 -1.27187543 72.33056641 -2.20825195 C73.5195755 -2.29352142 74.70858459 -2.37879089 75.93362427 -2.46664429 C143.94122931 -7.30546012 217.90652438 -9.47445121 272.70556641 37.91674805 C273.52154297 38.61155273 274.33751953 39.30635742 275.17822266 40.0222168 C292.2741613 54.95143679 292.2741613 54.95143679 293.70556641 61.91674805 C292.86823975 62.03155518 292.03091309 62.1463623 291.16821289 62.26464844 C260.22786108 66.56992341 230.39354405 72.96246852 200.70556641 82.91674805 C199.64708496 83.26962891 198.58860352 83.62250977 197.49804688 83.98608398 C145.85853708 101.39120225 98.71341738 127.09776715 59.76806641 165.54174805 C58.87941895 166.41259033 57.99077148 167.28343262 57.07519531 168.18066406 C49.00791991 176.25784637 42.89014958 184.92887616 37.64306641 195.04174805 C37.00365112 196.27368896 37.00365112 196.27368896 36.35131836 197.53051758 C25.92348726 218.01411064 20.58450665 239.94391861 20.39306641 262.91674805 C20.34956055 264.56416992 20.34956055 264.56416992 20.30517578 266.24487305 C20.1325768 289.9307641 27.2815744 313.16758011 33.1394043 335.90991211 C44.033425 378.36838394 47.05904614 418.99609968 46.96630859 462.60424805 C46.9549586 467.94857538 46.96166822 473.29270258 46.97317982 478.63702297 C47.02944429 509.34013177 46.92943665 540.15179327 42.51806641 570.60424805 C42.41230286 571.35637573 42.30653931 572.10850342 42.1975708 572.88342285 C33.80306416 632.1353278 12.98789099 687.67635173 -26.40649414 733.1875 C-29.14875526 736.40612772 -31.46396128 739.65192572 -33.60693359 743.29174805 C-39.32872959 752.73132937 -47.75623654 760.48945997 -55.60693359 768.16674805 C-58.43562788 770.93614057 -60.85929734 773.8588014 -63.29443359 776.97924805 C-68.99400779 784.0938207 -75.74837026 790.05042295 -82.44726562 796.2043457 C-89.16317643 801.94901691 -89.16317643 801.94901691 -94.29443359 808.91674805 C-94.95443359 808.91674805 -95.61443359 808.91674805 -96.29443359 808.91674805 C-96.36489816 788.60024378 -96.41760345 768.28376473 -96.44987011 747.96716309 C-96.46525847 738.53120814 -96.48619185 729.09532965 -96.52075195 719.65942383 C-96.55090295 711.42331923 -96.57006672 703.18727007 -96.57669908 694.95111179 C-96.58056842 690.60081162 -96.58948826 686.25066989 -96.61162376 681.90042114 C-96.84951169 633.19293401 -89.46941634 586.77924446 -59.29443359 546.91674805 C-58.55708984 545.93706055 -57.81974609 544.95737305 -57.06005859 543.94799805 C-43.06147669 526.16877724 -25.45484447 513.2984969 -7.17871094 500.27612305 C-5.82219601 499.29749191 -4.49183761 498.28223208 -3.1796875 497.24487305 C-1.29443359 495.91674805 -1.29443359 495.91674805 0.70556641 495.91674805 C0.36412598 495.28921631 0.02268555 494.66168457 -0.32910156 494.01513672 C-6.27190705 483.0861482 -12.20769594 472.15284345 -18.04443359 461.16674805 C-18.46192871 460.388396 -18.87942383 459.61004395 -19.30957031 458.80810547 C-19.69129395 458.08598877 -20.07301758 457.36387207 -20.46630859 456.61987305 C-20.79727539 455.99757813 -21.12824219 455.3752832 -21.46923828 454.73413086 C-22.33911345 452.81834661 -22.846851 450.96882926 -23.29443359 448.91674805 C-71.81868534 472.29720851 -100.435508 503.05386246 -126.29443359 549.91674805 C-128.85591696 548.63600637 -128.93696781 547.72848338 -129.98193359 545.10424805 C-141.38788496 518.73831699 -162.78953982 494.3719056 -185.29443359 476.91674805 C-185.82601074 476.498125 -186.35758789 476.07950195 -186.90527344 475.64819336 C-194.60943721 469.6145696 -202.62352177 464.35897378 -211.10693359 459.47924805 C-212.39543213 458.735177 -212.39543213 458.735177 -213.70996094 457.97607422 C-219.40030551 454.77341054 -225.17474879 452.18968049 -231.29443359 449.91674805 C-231.52001953 450.70307617 -231.74560547 451.4894043 -231.97802734 452.29956055 C-233.70021873 457.03175409 -235.99555471 461.35101813 -238.35693359 465.79174805 C-238.84137939 466.71197754 -239.3258252 467.63220703 -239.82495117 468.58032227 C-243.29757143 475.14167213 -246.88589375 481.63178426 -250.65209961 488.02954102 C-252.79928073 491.7207392 -252.79928073 491.7207392 -253.29443359 495.91674805 C-251.86995633 497.245374 -251.86995633 497.245374 -249.91943359 498.37768555 C-249.18950195 498.84231201 -248.45957031 499.30693848 -247.70751953 499.78564453 C-246.51304199 500.53116577 -246.51304199 500.53116577 -245.29443359 501.29174805 C-228.16197884 512.3580121 -211.06838197 525.87572992 -198.29443359 541.91674805 C-197.14587891 543.32633789 -197.14587891 543.32633789 -195.97412109 544.7644043 C-173.1413304 573.24905087 -159.08314414 610.92709197 -157.72436523 647.41088867 C-157.68451791 648.43029793 -157.64467058 649.44970718 -157.60361576 650.50000763 C-157.09874472 664.73961177 -157.06555689 678.98880299 -156.99111056 693.23570824 C-156.96884618 697.31955263 -156.94166052 701.40336462 -156.91505432 705.48718262 C-156.86566221 713.17871349 -156.82053115 720.87026287 -156.77703196 728.56182909 C-156.72719443 737.33612169 -156.67245289 746.11038172 -156.61735237 754.8846426 C-156.50435624 772.895314 -156.39734651 790.90601635 -156.29443359 808.91674805 C-159.19570337 807.51869476 -161.35067961 806.13431392 -163.68505859 803.9050293 C-164.31283203 803.31141602 -164.94060547 802.71780273 -165.58740234 802.10620117 C-166.55613281 801.17710937 -166.55613281 801.17710937 -167.54443359 800.22924805 C-168.81923792 799.01570733 -170.09528356 797.80346927 -171.37255859 796.5925293 C-171.93362305 796.05539307 -172.4946875 795.51825684 -173.07275391 794.96484375 C-175.03104584 793.15955682 -177.02544144 791.41721117 -179.04125977 789.67700195 C-183.28703477 785.97314762 -187.29012786 782.06569696 -191.26708984 778.0769043 C-192.35720619 776.98822304 -192.35720619 776.98822304 -193.46934509 775.87754822 C-194.99405655 774.35351249 -196.5175251 772.82823235 -198.03979492 771.30175781 C-200.35077251 768.98542341 -202.6670413 766.67447727 -204.98388672 764.36401367 C-206.4744418 762.87279771 -207.9646866 761.38127152 -209.45458984 759.8894043 C-210.13707291 759.20894547 -210.81955597 758.52848663 -211.52272034 757.82740784 C-258.15898246 710.9664895 -287.51818987 648.25812469 -296.29443359 582.91674805 C-296.43719727 581.87905273 -296.57996094 580.84135742 -296.72705078 579.7722168 C-298.78531247 564.17568106 -299.56394851 548.62828999 -299.86865234 532.91674805 C-299.88880779 531.93589737 -299.90896324 530.95504669 -299.92972946 529.94447327 C-300.55767171 498.59946734 -300.44901855 467.24433221 -300.42144346 435.8945694 C-300.4187399 432.56154279 -300.4169196 429.22851594 -300.41511256 425.89548874 C-300.39259257 384.87517179 -300.35143069 343.85371644 -300.00484467 302.83468628 C-299.98232521 299.96662431 -299.96468012 297.09857313 -299.94854736 294.23046875 C-299.47981825 215.20130663 -284.06045079 131.66740186 -234.29443359 67.91674805 C-233.54677734 66.95639648 -232.79912109 65.99604492 -232.02880859 65.0065918 C-214.64386835 43.27541649 -194.21977576 25.17630586 -170.29443359 10.91674805 C-169.43978516 10.40700439 -169.43978516 10.40700439 -168.56787109 9.88696289 C-117.96030732 -19.77122541 -54.06377876 -19.20766932 0 0 Z M-116.60693359 68.22924805 C-122.41981477 75.44690884 -124.75076329 84.40191346 -124.11083984 93.5378418 C-122.68132268 103.92763151 -117.67627471 113.46782627 -109.29443359 119.91674805 C-101.220894 124.86993275 -93.70950597 125.70765746 -84.29443359 124.91674805 C-73.62849708 122.10839096 -64.83342098 115.502453 -59.15380859 106.01049805 C-55.55870928 97.69242511 -55.25130987 87.67499447 -58.27880859 79.19799805 C-60.9693632 73.15459848 -64.35782206 68.35969842 -69.29443359 63.91674805 C-70.03693359 63.23612305 -70.77943359 62.55549805 -71.54443359 61.85424805 C-87.67366074 50.49047437 -103.66012647 54.5036856 -116.60693359 68.22924805 Z " fill="#17171F" transform="translate(1089.29443359375,13.083251953125)"/>
<path d="M0 0 C1.98311618 -0.0471496 3.96542435 -0.12509381 5.94754028 -0.20376587 C13.57663776 -0.27648047 18.08538307 0.46496589 23.77859497 5.69418335 C24.37696167 6.29480591 24.97532837 6.89542847 25.59182739 7.51425171 C26.52253052 8.30831421 27.45323364 9.10237671 28.41213989 9.92050171 C30.81750246 12.10571245 33.21184008 14.30142069 35.59182739 16.51425171 C36.50061646 17.34182983 36.50061646 17.34182983 37.42776489 18.18612671 C51.00153123 31.05890042 61.03078806 48.15266899 67.78890848 65.46881908 C68.29641133 66.76168052 68.82494164 68.04665489 69.38201666 69.31894308 C72.28418212 76.66629376 72.00895963 84.11335705 71.97036743 91.8795929 C71.97366158 93.43941124 71.97827761 94.99922725 71.9840951 96.55903822 C71.99627384 100.82925933 71.98995643 105.09928119 71.98059011 109.36950195 C71.97378083 113.98104461 71.98433292 118.59255111 71.99287415 123.2040863 C72.00542976 131.19081589 72.00741728 139.17749134 72.0025177 147.16422844 C71.99570482 158.72252788 72.00823563 170.28074582 72.02602488 181.83903069 C72.05466402 200.60698816 72.07218481 219.37493682 72.08059692 238.14291382 C72.0811041 239.26565358 72.08161128 240.38839335 72.08213383 241.54515553 C72.08566084 249.51402081 72.08879023 257.48288623 72.09182739 265.45175171 C72.09529631 274.55290744 72.09894546 283.65406304 72.10305786 292.75521851 C72.10381178 294.43681718 72.10381178 294.43681718 72.10458094 296.15238755 C72.11332714 314.84992282 72.13376724 333.54742782 72.16253996 352.24494272 C72.17971212 363.77310171 72.18630826 375.30117502 72.17923391 386.82934511 C72.17505258 394.7285982 72.18141083 402.62779728 72.19603264 410.52703779 C72.20408499 415.08320864 72.2072111 419.63924553 72.19721031 424.1954155 C72.1881245 428.3696069 72.19287651 432.54354965 72.20842475 436.71771986 C72.21160421 438.22434632 72.20975815 439.73099394 72.20225936 441.23760509 C72.14037883 454.62894142 73.98425675 465.1586945 83.22073364 475.30331421 C88.72772444 480.49087399 94.97104004 482.58349591 102.46682739 482.95175171 C110.14900495 482.65306673 117.19321121 480.5391325 122.52932739 474.82675171 C132.38851639 461.92489434 131.90483885 445.5275759 131.81214905 429.94146729 C131.81086888 428.44445886 131.8104876 426.94744944 131.81091315 425.45044053 C131.80957861 421.38619551 131.79587114 417.32207672 131.77998149 413.25786614 C131.76505096 408.85566759 131.76199395 404.45345842 131.7575531 400.05123901 C131.74840652 392.43732465 131.73226386 384.82345177 131.71159172 377.20956039 C131.68193888 366.18617073 131.66639901 355.16279372 131.65477962 344.13937189 C131.63580361 326.23062821 131.61007258 308.32190224 131.57791138 290.41317749 C131.57599344 289.34329531 131.57407551 288.27341314 131.57209945 287.17111029 C131.55054707 275.23153213 131.52736711 263.291958 131.50241089 251.35238647 C131.49337827 247.0197856 131.4843619 242.6871847 131.47537231 238.35458374 C131.47315066 237.28541056 131.470929 236.21623738 131.46864002 235.11466502 C131.4318782 217.26668366 131.40682963 199.41870699 131.39090258 181.57069504 C131.38059201 170.57870418 131.36023879 159.58682203 131.32678498 148.59487678 C131.30459549 141.06244929 131.29326074 133.53005484 131.29034965 125.99759541 C131.2883079 121.65756278 131.28139364 117.31768446 131.26112747 112.97769547 C131.24262564 108.99665895 131.23828885 105.01585539 131.24470527 101.03478338 C131.24458615 99.60297958 131.23946797 98.17116447 131.22853541 96.7394024 C131.12619937 82.6218613 133.47506892 70.44733281 139.84182739 57.82675171 C140.3341687 56.82853394 140.82651001 55.83031616 141.33377075 54.80184937 C144.6889863 48.08701581 148.16402496 41.5916276 152.59182739 35.51425171 C153.33819458 34.47526733 154.08456177 33.43628296 154.85354614 32.36581421 C163.73170839 20.27436658 173.85393355 10.46451467 186.59182739 2.51425171 C187.22346802 2.10819702 187.85510864 1.70214233 188.50588989 1.28378296 C191.64289129 0.12649967 194.73131755 0.21963247 198.02932739 0.26425171 C198.77376099 0.27174438 199.51819458 0.27923706 200.28518677 0.28695679 C224.93781907 0.7424503 249.39969624 5.12936655 272.59182739 13.51425171 C273.37799438 13.796073 274.16416138 14.07789429 274.97415161 14.36825562 C299.32222822 23.24214709 324.3366894 35.85564526 343.59182739 53.51425171 C343.59182739 53.84425171 343.59182739 54.17425171 343.59182739 54.51425171 C342.86407104 54.53407104 342.1363147 54.55389038 341.38650513 54.5743103 C290.44700794 56.02138697 243.87996941 61.78073873 205.40432739 98.07675171 C204.81474243 98.60671753 204.22515747 99.13668335 203.6177063 99.68270874 C202.81018921 100.4675061 202.81018921 100.4675061 201.98635864 101.26815796 C201.25703125 101.95373779 201.25703125 101.95373779 200.51296997 102.65316772 C198.19215188 107.34216755 201.12210135 113.6462311 202.64651489 118.31503296 C202.96572403 119.29328789 202.96572403 119.29328789 203.29138184 120.29130554 C204.00806059 122.47269591 204.73617345 124.6500045 205.46682739 126.82675171 C205.72314941 127.59501282 205.97947144 128.36327393 206.24356079 129.15481567 C213.2645337 150.12130123 221.27295659 170.72317901 229.21975708 191.35165405 C232.48812303 199.83681572 235.72982848 208.33211583 238.96746826 216.82904053 C239.63514286 218.58128111 240.30309245 220.33341694 240.97131348 222.08544922 C245.51094602 233.98947633 249.98921328 245.91437175 254.40756226 257.8638916 C260.15301956 273.39715397 265.99521836 288.89385785 271.84182739 304.38925171 C272.09165501 305.05137917 272.34148262 305.71350662 272.59888077 306.39569855 C275.57765676 314.29002872 278.55794514 322.18378741 281.53888416 330.07730103 C283.3948198 334.99200601 285.24949724 339.90718486 287.10379028 344.82250977 C297.88637319 373.40420231 308.72182594 401.96569497 319.59182739 430.51425171 C320.00797302 431.60735657 320.42411865 432.70046143 320.85287476 433.82669067 C334.23044322 468.96280774 347.71324371 504.05746045 361.27938843 539.1211853 C362.56440147 542.44334709 363.84853975 545.76584553 365.13235474 549.08847046 C373.10549001 569.72240817 381.10790038 590.34247093 389.27798462 610.89932251 C395.36655871 626.22275794 401.34016556 641.58442811 407.15432739 657.01425171 C407.48468994 657.88639313 407.81505249 658.75853455 408.15542603 659.65710449 C409.07845208 662.09707472 409.99457079 664.53951242 410.90823364 666.98300171 C411.18230545 667.70579819 411.45637726 668.42859467 411.73875427 669.17329407 C412.82447008 672.10030465 413.59182739 674.36460861 413.59182739 677.51425171 C354.89413757 672.90115413 291.7426568 651.76329684 248.59182739 610.51425171 C247.20395818 609.29677925 245.80897197 608.0873309 244.40432739 606.88925171 C236.25908435 599.78740757 229.31282811 591.95765942 222.59182739 583.51425171 C221.93440552 582.7240564 221.27698364 581.93386108 220.59963989 581.11972046 C211.80280395 570.46812995 204.34772673 559.0789588 198.59182739 546.51425171 C197.89333243 551.7011239 197.41803255 556.80365724 197.19729614 562.03768921 C197.13144079 563.47254794 197.06458768 564.90736115 196.99685669 566.34213257 C196.96200165 567.08397797 196.92714661 567.82582336 196.89123535 568.59014893 C194.57046177 616.26948325 183.34527334 665.46148179 151.79885864 702.64315796 C149.27244535 705.929731 147.26267664 709.35556415 145.21682739 712.95175171 C140.90700868 720.46477562 135.60610145 726.33412685 129.59182739 732.51425171 C128.06232829 734.19390131 126.54103892 735.88107529 125.02932739 737.57675171 C121.8573086 741.11193544 118.66731483 744.62981828 115.46682739 748.13925171 C111.45185849 752.54944412 107.49436752 757.00436262 103.59182739 761.51425171 C101.25500321 759.51821438 98.92193117 757.51811317 96.59182739 755.51425171 C95.97750854 754.98807251 95.3631897 754.46189331 94.73025513 753.91976929 C83.3634587 744.09279175 72.78763162 733.40479711 63.59182739 721.51425171 C62.71626088 720.42667063 61.83853655 719.34082428 60.95901489 718.25643921 C44.41581647 697.75018957 31.08161377 675.11142597 21.59182739 650.51425171 C21.30613892 649.77706909 21.02045044 649.03988647 20.72610474 648.28036499 C2.08317246 599.09403914 3.31054053 544.29426638 2.59182739 492.51425171 C2.12522705 493.13623947 1.65862671 493.75822723 1.17788696 494.39906311 C-11.83881562 511.73775875 -24.8499513 528.39766643 -41.40817261 542.51425171 C-42.82743042 543.74981812 -42.82743042 543.74981812 -44.27536011 545.01034546 C-89.85316189 584.46320775 -148.77604875 609.10188009 -207.40817261 621.51425171 C-206.80910291 618.14061811 -205.96994517 615.10681736 -204.69674683 611.92807007 C-204.34424362 611.04222229 -203.99174042 610.15637451 -203.6285553 609.24368286 C-203.24387589 608.29011902 -202.85919647 607.33655518 -202.46286011 606.35409546 C-202.0611409 605.34921082 -201.65942169 604.34432617 -201.24552917 603.30899048 C-199.92938928 600.02135969 -198.60656664 596.73646848 -197.28317261 593.45175171 C-196.36682848 591.16898935 -195.45056936 588.88619286 -194.53439331 586.60336304 C-188.72419864 572.14982419 -182.80826431 557.74387984 -176.78268433 543.3789978 C-170.7859629 529.07826548 -164.96636162 514.70768155 -159.16183472 500.32806396 C-157.15419209 495.35563915 -155.13809831 490.38673945 -153.11520386 485.42050171 C-146.97229567 470.33074645 -140.88319774 455.21990446 -134.83395386 440.09237671 C-134.5379384 439.35214201 -134.24192295 438.61190731 -133.93693733 437.84924126 C-130.9381043 430.34950307 -127.94090576 422.84911452 -124.94696808 415.34742069 C-118.4626417 399.10141761 -111.9433883 382.87019238 -105.37301636 366.65878296 C-95.61362265 342.57892239 -85.9253521 318.47059761 -76.24032593 294.36074829 C-74.38037151 289.73104906 -72.51978569 285.10160369 -70.65920162 280.47215748 C-62.32393335 259.73203097 -53.99281263 238.9903259 -45.69940567 218.23341942 C-39.67642383 203.15924448 -33.61760325 188.10091692 -27.47067261 173.07675171 C-26.63822669 171.03883171 -25.80578874 169.00090844 -24.97335815 166.96298218 C-18.54591895 151.24022479 -12.05558197 135.543727 -5.52365112 119.86410522 C-5.18420471 119.04840561 -4.8447583 118.23270599 -4.49502563 117.39228821 C-3.86523937 115.87924755 -3.23456181 114.36657744 -2.60281372 112.85435486 C-1.45347857 110.09271488 -0.3545065 107.35325338 0.59182739 104.51425171 C0.02979614 104.28479858 -0.53223511 104.05534546 -1.11129761 103.81893921 C-4.02240629 102.16535027 -5.87304562 100.08760205 -8.15817261 97.63925171 C-42.11059625 62.65283306 -91.8609365 55.7250953 -138.40817261 54.51425171 C-134.93527405 50.06115188 -131.42558949 46.67387606 -126.84567261 43.38925171 C-126.20146362 42.92406128 -125.55725464 42.45887085 -124.89352417 41.97958374 C-96.06675068 21.54756975 -64.15849475 8.76570575 -29.40817261 2.51425171 C-28.11137573 2.26932983 -26.81457886 2.02440796 -25.47848511 1.77206421 C-17.05103877 0.44904575 -8.51951143 0.17853168 0 0 Z " fill="#181820" transform="translate(860.4081726074219,859.4857482910156)"/>
<path d="M0 0 C3.34959559 1.59256693 5.66788259 3.38283118 8.375 5.9375 C14.63988403 11.6651338 21.26716117 16.84425117 28 22 C28.74040527 22.57024902 29.48081055 23.14049805 30.24365234 23.72802734 C49.27521007 38.3528568 68.9327048 51.48794618 90 63 C90.84498047 63.4650293 91.68996094 63.93005859 92.56054688 64.40917969 C150.70918006 96.24611334 214.73529995 112.2024846 279.23828125 125.05078125 C280.04962021 125.2124176 280.86095917 125.37405396 281.69688416 125.54058838 C285.51758054 126.30009158 289.33939412 127.0529476 293.16381836 127.79345703 C294.1983741 127.99590279 294.1983741 127.99590279 295.25382996 128.20243835 C297.09282819 128.56215642 298.93261368 128.91784334 300.77246094 129.27319336 C301.83754883 129.51303955 302.90263672 129.75288574 304 130 C305.07813965 130.22969482 306.1562793 130.45938965 307.26708984 130.69604492 C310 132 310 132 311.47216797 134.75537109 C311.80877441 135.91633301 312.14538086 137.07729492 312.4921875 138.2734375 C312.68369385 138.90427246 312.8752002 139.53510742 313.07250977 140.18505859 C313.48121675 141.53847629 313.87923217 142.89516023 314.26751709 144.25457764 C315.29229833 147.83158208 316.40280821 151.38218393 317.5 154.9375 C317.7149411 155.64184174 317.9298822 156.34618347 318.15133667 157.0718689 C327.92357126 188.95216506 344.50514421 219.0765636 364 246 C364.47260254 246.65661621 364.94520508 247.31323242 365.43212891 247.98974609 C372.76707341 258.13131711 380.62262147 267.70455259 389 277 C389.55413574 277.6172998 390.10827148 278.23459961 390.67919922 278.87060547 C402.06518501 291.4921268 414.18175662 303.25466982 427.45703125 313.87890625 C439.74636401 324.1294557 439.74636401 324.1294557 442 331 C441.33355469 330.86722656 440.66710937 330.73445313 439.98046875 330.59765625 C439.05878906 330.42105469 438.13710938 330.24445313 437.1875 330.0625 C435.84751953 329.80146484 435.84751953 329.80146484 434.48046875 329.53515625 C425.40763937 328.14011963 416.29334943 327.8042365 407.12890625 327.5703125 C404.61163935 327.49871046 402.09438725 327.42658659 399.57714844 327.35400391 C398.26935425 327.31704407 396.96156006 327.28008423 395.61413574 327.24200439 C316.32096912 324.97429963 240.39397653 318.36636537 168 283 C166.74848145 282.38970947 166.74848145 282.38970947 165.47167969 281.76708984 C141.1532359 269.76507809 118.8627811 254.44932477 99 236 C97.67028175 234.8499734 96.33704072 233.70400512 95 232.5625 C88.09637807 226.53752086 81.68831451 219.98709878 75.74609375 213.015625 C74.55942238 211.64577617 73.34162009 210.30241472 72.09765625 208.984375 C35.11155145 169.58763023 12.18259988 116.81371925 3 64 C2.82355957 63.00355469 2.64711914 62.00710937 2.46533203 60.98046875 C-0.94094828 40.80610689 -0.30484582 20.3840238 0 0 Z " fill="#181720" transform="translate(0,92)"/>
<path d="M0 0 C1.00647376 61.47748191 -11.28264759 123.90447307 -49 174 C-49.93572716 175.26240505 -50.87059801 176.52544521 -51.8046875 177.7890625 C-58.83456957 187.26381402 -66.05514104 196.5915043 -73.34326172 205.86865234 C-74.44809584 207.28999066 -75.53836949 208.72276716 -76.61376953 210.16650391 C-81.34040296 216.45249629 -86.66992206 221.96823442 -92.25 227.5 C-93.12785156 228.38558594 -94.00570313 229.27117187 -94.91015625 230.18359375 C-100.96070439 236.21642433 -107.28844458 241.71629763 -114 247 C-114.6796582 247.53898926 -115.35931641 248.07797852 -116.05957031 248.63330078 C-175.26031224 295.07661155 -248.93227335 316.64297715 -323.03515625 322.4765625 C-323.83643951 322.54014261 -324.63772278 322.60372272 -325.46328735 322.66922951 C-346.12290138 324.28957443 -366.8144269 325.18480578 -387.51654053 326.0602417 C-391.56574434 326.23295891 -395.61466789 326.41180817 -399.66359711 326.5908308 C-404.53605816 326.80611217 -409.40863789 327.01863715 -414.28125 327.23046875 C-415.19317612 327.27021505 -416.10510223 327.30996136 -417.04466248 327.35091209 C-419.61369809 327.46224333 -422.18280675 327.57167815 -424.75195312 327.68041992 C-425.87836967 327.72945465 -425.87836967 327.72945465 -427.02754211 327.77947998 C-431.02150608 327.94625435 -435.00262688 328.0321363 -439 328 C-436.7653529 322.97204404 -433.50422125 319.35964679 -429.36328125 315.8125 C-425.07114705 312.08944292 -420.93315103 308.22343163 -416.8125 304.3125 C-408.30037787 296.25092147 -408.30037787 296.25092147 -404.53515625 292.85546875 C-392.35452461 281.86857986 -381.07811348 269.95268574 -371 257 C-370.51321777 256.38044434 -370.02643555 255.76088867 -369.52490234 255.12255859 C-361.879322 245.37682492 -354.63147406 235.46449999 -348 225 C-347.63487305 224.42668945 -347.26974609 223.85337891 -346.89355469 223.26269531 C-328.55210006 194.22891288 -316.30598524 163.24799568 -308 130 C-307.36743286 129.87631042 -306.73486572 129.75262085 -306.08312988 129.62518311 C-258.80424259 120.36231616 -211.66108163 110.6298836 -166 95 C-164.8022998 94.59072266 -163.60459961 94.18144531 -162.37060547 93.75976562 C-105.83642615 74.16566748 -53.53138767 44.54472539 -8.17260742 5.52685547 C-1.73557944 0 -1.73557944 0 0 0 Z " fill="#181820" transform="translate(1922,93)"/>
<path d="M0 0 C4.92513592 1.56623096 8.39428868 4.45786128 12.375 7.625 C31.29879243 22.32624781 51.17259025 35.19228352 72 47 C72.8986377 47.51401367 73.79727539 48.02802734 74.72314453 48.55761719 C109.47004566 68.25400838 149.09841422 80.69114086 188 89 C189.05509766 89.22880859 190.11019531 89.45761719 191.19726562 89.69335938 C206.00466936 92.84328119 220.91919132 94.87209072 235.9375 96.6875 C236.77727386 96.79032288 237.61704773 96.89314575 238.48226929 96.99908447 C265.26199011 100.24251067 292.10934404 101.36829899 319.04708862 102.26095581 C475.98268631 107.48457327 475.98268631 107.48457327 521 142 C521.57314941 142.43570313 522.14629883 142.87140625 522.73681641 143.3203125 C529.46820704 148.45471026 536.03419036 153.7854258 542.5 159.25 C543.06332031 159.72099121 543.62664063 160.19198242 544.20703125 160.67724609 C548.23124255 164.1215964 551.65435228 167.89781392 555 172 C554.28046143 171.91435791 553.56092285 171.82871582 552.81958008 171.74047852 C549.48420484 171.34508183 546.14836098 170.95377666 542.8125 170.5625 C541.68134766 170.42779297 540.55019531 170.29308594 539.38476562 170.15429688 C474.38461754 162.56168699 418.0881293 178.48036273 359.75485229 205.8197937 C296.11162088 235.60647754 231.93095955 243.94859187 164 222 C163.20577637 221.74524902 162.41155273 221.49049805 161.59326172 221.22802734 C131.65936299 211.42622721 105.55982259 193.72090758 83 172 C82.42717285 171.44908691 81.8543457 170.89817383 81.26416016 170.33056641 C73.6356971 162.94944611 66.47882303 155.42919536 60 147 C59.56010742 146.44183594 59.12021484 145.88367188 58.66699219 145.30859375 C27.89564963 106.24860306 -0.70964466 51.0299022 0 0 Z " fill="#181820" transform="translate(15,371)"/>
<path d="M0 0 C2.18936535 34.54331994 -12.26696842 67.15215446 -27.625 97.125 C-27.98631012 97.8320105 -28.34762024 98.539021 -28.71987915 99.26745605 C-34.54270562 110.62219056 -40.62510859 121.50880492 -48.875 131.3125 C-53.77216426 137.268969 -58.02303655 143.4124344 -62.0625 149.9765625 C-64.87007378 154.35773611 -67.81826239 158.03968957 -71.8125 161.375 C-76.85921658 165.70075707 -81.57342346 170.19604509 -85.75 175.375 C-107.47869402 200.89489845 -146.49351335 217.42076889 -178 226 C-178.82677246 226.22526367 -179.65354492 226.45052734 -180.50537109 226.68261719 C-186.63227128 228.31537029 -192.78966885 229.72328335 -199 231 C-199.78455566 231.16661133 -200.56911133 231.33322266 -201.37744141 231.50488281 C-229.81549502 237.26282869 -262.75321946 236.18688991 -291 230 C-291.93924316 229.79632812 -292.87848633 229.59265625 -293.84619141 229.3828125 C-317.89188566 223.94515419 -340.08579193 213.17477146 -362.25654602 202.69966125 C-418.31046043 176.26016536 -471.99405323 164.16050848 -534.19042969 169.75634766 C-538.14455578 170.09925849 -542.10170217 170.37255568 -546.0625 170.625 C-547.81240234 170.73714844 -547.81240234 170.73714844 -549.59765625 170.8515625 C-550.39042969 170.90054688 -551.18320313 170.94953125 -552 171 C-491.99782849 110.45433056 -416.63658096 106.05749733 -335.60546875 103.5390625 C-248.46351448 100.82749309 -164.70811834 91.32989543 -85 53 C-83.72382812 52.39768555 -83.72382812 52.39768555 -82.421875 51.78320312 C-54.89844671 38.77881602 -29.51135032 21.96795854 -5.59960938 3.21411133 C-1.36497084 0 -1.36497084 0 0 0 Z " fill="#181820" transform="translate(1905,371)"/>
<path d="M0 0 C1.0990567 0.00215515 2.1981134 0.0043103 3.33047485 0.00653076 C20.22417666 0.05958666 36.79965617 0.53694293 53.5 3.3125 C55.34634033 3.61849121 55.34634033 3.61849121 57.22998047 3.93066406 C83.38720478 8.40471189 108.32887235 15.453108 133.36657715 24.11425781 C174.50582959 38.3347705 215.75476921 48.25286583 259.5 49.3125 C260.28536133 49.33441406 261.07072266 49.35632813 261.87988281 49.37890625 C290.04738076 50.06396903 318.44319358 47.58421747 346.5 45.3125 C344.70873912 49.21015576 342.23226463 51.68115937 339.0625 54.5 C338.52753906 54.98267334 337.99257812 55.46534668 337.44140625 55.96264648 C333.15266655 59.801903 328.74064677 63.47604492 324.25390625 67.08203125 C321.43906887 69.36184989 318.69165939 71.70990993 315.9375 74.0625 C301.44490834 86.09935084 285.90050435 96.08192874 269.5 105.3125 C268.31567383 105.98708252 268.31567383 105.98708252 267.10742188 106.67529297 C238.18649241 123.03779826 206.15738587 133.59828803 173.5 139.3125 C172.61924805 139.47621094 171.73849609 139.63992188 170.83105469 139.80859375 C142.29720608 144.95595966 109.97437406 144.60521205 81.5 139.3125 C80.54963867 139.14621094 79.59927734 138.97992187 78.62011719 138.80859375 C62.51083693 135.94989794 47.01010533 131.47438434 31.5 126.3125 C30.07324951 125.84287842 30.07324951 125.84287842 28.61767578 125.36376953 C9.36983644 118.95460885 -8.69542302 110.16133643 -26.4375 100.375 C-58.78370425 82.55337564 -89.80554841 70.00279161 -126.7890625 66.70703125 C-130.5 66.3125 -130.5 66.3125 -133.5 65.3125 C-131.89522671 61.46469132 -129.31832741 58.68334513 -126.5 55.6875 C-125.98236084 55.13408936 -125.46472168 54.58067871 -124.93139648 54.01049805 C-123.1313568 52.10093835 -121.31818824 50.20478798 -119.5 48.3125 C-118.80148926 47.58530762 -118.10297852 46.85811523 -117.38330078 46.10888672 C-82.80703481 10.33274154 -48.63250023 -0.17220586 0 0 Z " fill="#17171F" transform="translate(1228.5,738.6875)"/>
<path d="M0 0 C3.33382932 0.01613025 6.6664501 -0.00000248 10.00024414 -0.01904297 C50.62350278 -0.0590536 81.28690225 6.75453492 111.20605469 34.95874023 C112.98453428 36.58987041 114.81389912 38.15338791 116.64672852 39.72314453 C120.85839039 43.39075432 124.66820107 47.35447386 128.45532227 51.45361328 C129.09276367 52.13488281 129.73020508 52.81615234 130.38696289 53.51806641 C133.97908663 57.37709718 137.43488437 61.30619322 140.76782227 65.39111328 C137.85338328 66.36259294 135.4952119 66.67193343 132.44750977 66.93408203 C92.05973493 70.70565614 57.86533976 84.58064904 22.72875977 104.05517578 C-8.13182384 121.07856556 -41.37849133 133.66283003 -76.23217773 139.39111328 C-77.5124585 139.61541016 -77.5124585 139.61541016 -78.81860352 139.84423828 C-150.68653979 152.05244711 -227.20170315 132.91586451 -286.45874023 91.10595703 C-292.17289235 87.0184084 -297.76154054 82.79922966 -303.23217773 78.39111328 C-303.75392578 77.9737793 -304.27567383 77.55644531 -304.81323242 77.12646484 C-313.22323038 70.3398996 -320.95037367 62.8786444 -328.60717773 55.26611328 C-329.08582275 54.79273529 -329.56446777 54.3193573 -330.05761719 53.83163452 C-331.42114884 52.47974721 -332.77607403 51.11919607 -334.13061523 49.75830078 C-334.92129395 48.96536621 -335.71197266 48.17243164 -336.52661133 47.35546875 C-338.23217773 45.39111328 -338.23217773 45.39111328 -338.23217773 43.39111328 C-337.58482666 43.47151855 -336.93747559 43.55192383 -336.27050781 43.63476562 C-333.19559542 44.01489323 -330.12014277 44.39048396 -327.04467773 44.76611328 C-325.52003906 44.95560547 -325.52003906 44.95560547 -323.96459961 45.14892578 C-320.38925622 45.58361799 -316.81141852 45.98975042 -313.23217773 46.39111328 C-312.13231033 46.52089066 -312.13231033 46.52089066 -311.01022339 46.65328979 C-295.55760475 48.45311925 -280.21650774 48.7522919 -264.66967773 48.70361328 C-263.43105988 48.70145813 -262.19244202 48.69930298 -260.91629028 48.69708252 C-243.17836838 48.64752765 -225.76076428 48.35266277 -208.23217773 45.39111328 C-207.05252441 45.20307129 -205.87287109 45.0150293 -204.6574707 44.82128906 C-179.39433338 40.7115746 -155.30230492 33.37914444 -131.02905273 25.39892578 C-129.43134537 24.87421188 -129.43134537 24.87421188 -127.80136108 24.33889771 C-122.54116509 22.60884537 -117.28555538 20.86669797 -112.03735352 19.10058594 C-75.62252244 6.93565228 -38.47059657 -0.2201384 0 0 Z " fill="#181820" transform="translate(689.232177734375,738.60888671875)"/>
<path d="M0 0 C1.05330133 0.86077998 2.10668773 1.72145589 3.16015625 2.58203125 C19.25836619 15.86348383 35.18969534 30.43833296 48.63671875 46.421875 C49.99828712 47.99801719 51.43464691 49.43424828 52.9375 50.875 C55 53 55 53 55 55 C53.87319824 54.98952637 52.74639648 54.97905273 51.58544922 54.96826172 C2.17281589 54.55062575 -40.72424335 63.36935558 -87.5 78.6875 C-125.13959327 91.01003041 -162.19990629 98.22012418 -201.875 98.25 C-203.10355713 98.25101212 -203.10355713 98.25101212 -204.35693359 98.25204468 C-262.35480271 98.17718254 -320.45142272 85.63593808 -373 61 C-374.393396 60.34862061 -374.393396 60.34862061 -375.81494141 59.68408203 C-409.09396738 43.96627459 -409.09396738 43.96627459 -418 34 C-417.39865234 34.03029297 -416.79730469 34.06058594 -416.17773438 34.09179688 C-355.0089868 37.09706414 -296.77726658 29.73418204 -241 3 C-166.75393597 -32.45822072 -70.86422721 -58.94820429 0 0 Z " fill="#181820" transform="translate(632,629)"/>
<path d="M0 0 C34.73701344 17.27052591 68.39332414 28.99396135 107 34 C108.2571582 34.16830322 109.51431641 34.33660645 110.80957031 34.51000977 C127.29777117 36.55049672 144.01655892 36.08338781 160.59130859 35.90405273 C163.57129499 35.87402113 166.55116171 35.85616906 169.53125 35.83984375 C170.44048218 35.82638412 171.34971436 35.8129245 172.28649902 35.79905701 C173.12588013 35.79567825 173.96526123 35.7922995 174.83007812 35.78881836 C175.56552856 35.78136093 176.300979 35.7739035 177.05871582 35.76622009 C179 36 179 36 182 38 C104.26952676 90.52776007 2.01441085 111.25012892 -90 94 C-112.55416146 89.60675638 -134.31782785 83.37798031 -155.98199463 75.79302979 C-199.41728149 60.60546601 -242.26818559 56.00815721 -288 55 C-283.60347016 49.74572545 -278.9838381 44.82356145 -274.14453125 39.9765625 C-273.40224777 39.23095062 -272.65996429 38.48533875 -271.89518738 37.71713257 C-270.33076978 36.14767776 -268.76501697 34.57955284 -267.19799805 33.01269531 C-264.83156937 30.64408694 -262.47325488 28.26760026 -260.11523438 25.890625 C-252.39136043 18.13791504 -244.70877691 10.65225351 -236 4 C-234.94234962 3.1566997 -233.884991 2.31303312 -232.828125 1.46875 C-163.16013689 -51.7322591 -73.11221529 -36.36120745 0 0 Z " fill="#171721" transform="translate(1524,628)"/>
<path d="M0 0 C24.26691957 11.38805952 47.2423838 25.83020518 67 44 C67.81911865 44.75120117 67.81911865 44.75120117 68.65478516 45.51757812 C105.21727788 79.48783241 121.77450475 127.43752148 124.17028809 176.48630142 C124.39541202 183.88265431 124.41964641 191.27837669 124.41069031 198.67769814 C124.40611209 202.79995351 124.42007999 206.9217967 124.43908691 211.04399109 C124.4764135 219.80014722 124.48965185 228.55627659 124.5 237.3125 C124.51118358 246.76741428 124.52717608 256.2222001 124.57071257 265.67702931 C124.59145546 270.38506048 124.59030503 275.09276889 124.58459473 279.80085754 C124.63107727 301.33516344 125.8722042 322.95909386 130.75 344 C131.21095419 346.0399133 131.66444764 348.08153121 132.109375 350.125 C132.40279785 351.39730469 132.40279785 351.39730469 132.70214844 352.6953125 C133.01455261 355.11260377 132.7535036 356.70108569 132 359 C124.0099869 353.2624906 116.71598405 347.17564373 109.5612793 340.43212891 C107.78514986 338.80292246 105.95888486 337.2403009 104.12890625 335.671875 C99.88492226 331.97433534 96.01996356 327.99303079 92.1875 323.875 C91.14601807 322.75859131 91.14601807 322.75859131 90.08349609 321.61962891 C55.14945683 283.95422132 37.03829508 237.92581163 27 188 C26.75330566 186.78618652 26.50661133 185.57237305 26.25244141 184.32177734 C21.54386537 160.44637946 19.13650611 136.25537786 16.48077393 112.08804321 C12.92637879 79.74692303 8.94091599 47.64187151 2.18334961 15.79003906 C1.96452873 14.75109497 1.96452873 14.75109497 1.74128723 13.69116211 C1.34851153 11.83629383 0.94822641 9.98302011 0.54736328 8.12988281 C0.0583467 5.33363279 -0.11215204 2.82835504 0 0 Z " fill="#191921" transform="translate(609,283)"/>
<path d="M0 0 C-1.04816534 6.07203114 -2.20622797 12.08347138 -3.66842651 18.06959534 C-10.72281316 47.42744232 -13.70888284 77.48319144 -17 107.4375 C-27.38222308 201.86706338 -27.38222308 201.86706338 -44.4375 244.625 C-44.77241455 245.47682861 -45.1073291 246.32865723 -45.45239258 247.20629883 C-48.01941478 253.40498192 -51.31258647 258.95739916 -54.88793945 264.62646484 C-56.97138421 267.95429281 -58.9622379 271.32125715 -60.9296875 274.71875 C-69.71764404 289.8490514 -78.6100817 303.48698963 -90.59375 316.33984375 C-92.88566997 318.87360593 -94.97054356 321.48807159 -97.0625 324.1875 C-107.305916 336.90031093 -120.55495358 348.75653059 -134 358 C-133.87882812 357.27876953 -133.75765625 356.55753906 -133.6328125 355.81445312 C-128.03859252 322.39974685 -124.87383022 289.96210081 -124.97265625 256.0859375 C-124.9765697 254.6621922 -124.9765697 254.6621922 -124.98056221 253.20968437 C-125.00699246 244.26521985 -125.04545226 235.3208253 -125.09594727 226.37646484 C-125.42972453 164.98615454 -122.75492724 100.75017219 -78.30859375 53.4609375 C-76.25781689 51.27483019 -74.30879725 49.0389845 -72.375 46.75 C-68.88611738 42.76155452 -65.0956487 39.35523012 -61 36 C-60.00226563 35.17628906 -59.00453125 34.35257812 -57.9765625 33.50390625 C-16.76422055 0 -16.76422055 0 0 0 Z " fill="#191922" transform="translate(1316,285)"/>
<path d="M0 0 C12.55225148 2.12532624 25.10308737 4.25874223 37.65180969 6.40481567 C43.28671802 7.36803194 48.92261857 8.32476477 54.56033325 9.27140808 C138.39530714 23.37663601 138.39530714 23.37663601 162 54 C185.89556374 89.24440754 187.15292821 137.23852403 191.86659431 178.3137207 C192.26359154 181.76954135 192.6653378 185.22479303 193.0703125 188.6796875 C193.14823406 189.34510056 193.22615562 190.01051361 193.30643845 190.6960907 C194.631904 201.90773593 196.4245446 212.97813684 198.69430542 224.03616333 C199 226 199 226 199 230 C196.23344582 228.70891619 193.95037933 227.2935196 191.6015625 225.34765625 C190.96428223 224.82397461 190.32700195 224.30029297 189.67041016 223.76074219 C188.9954248 223.20032227 188.32043945 222.63990234 187.625 222.0625 C182.34519668 217.71840387 177.02966086 213.43761797 171.625 209.25 C166.6987123 205.41722025 162.01785003 201.40377789 157.421875 197.17578125 C154.86742834 194.88089933 152.23527893 192.71808866 149.5625 190.5625 C144.72906996 186.65069857 140.1232725 182.53998996 135.546875 178.33203125 C133.41058251 176.37594748 131.25219343 174.45812303 129.0625 172.5625 C124.74192676 168.80395255 120.52632154 164.93340046 116.31762695 161.05078125 C114.31597012 159.20635503 112.30626525 157.37299813 110.28686523 155.54785156 C100.42372107 146.57844143 90.99441703 137.18054219 81.56933594 127.75463867 C79.68523709 125.87200821 77.79929634 123.99154573 75.90917969 122.11499023 C73.13744153 119.36170796 70.37261155 116.6016555 67.609375 113.83984375 C66.77790955 113.01556381 65.94644409 112.19128387 65.08978271 111.34202576 C59.30759517 105.53755189 54.11432321 99.39527492 49 93 C48.11316635 91.94899707 47.22123731 90.9022305 46.3203125 89.86328125 C35.75350636 77.58547981 27.04295585 64.03103228 19 50 C18.66403809 49.42523926 18.32807617 48.85047852 17.98193359 48.25830078 C10.06580172 34.63761361 -0.32279144 16.03763784 0 0 Z " fill="#191821" transform="translate(378,233)"/>
<path d="M0 0 C0.96730614 3.40827363 0.91590601 5.07460077 -0.3359375 8.421875 C-0.81220581 9.70058472 -0.81220581 9.70058472 -1.2980957 11.00512695 C-1.83116333 12.36383911 -1.83116333 12.36383911 -2.375 13.75 C-2.74004639 14.6886792 -3.10509277 15.6273584 -3.48120117 16.59448242 C-8.45821967 29.04179289 -15.12356399 39.99579233 -22.83422852 50.91552734 C-26.24610332 55.78008883 -29.29447287 60.78485369 -32.25 65.9375 C-37.50065363 75.04216191 -43.60813372 82.65873219 -50.6953125 90.4140625 C-52.96864772 92.96482168 -55.11484036 95.58300572 -57.25 98.25 C-61.36202502 103.33592569 -65.73433941 108.12336437 -70.21972656 112.87792969 C-73.01593397 115.84465877 -75.75578652 118.8440331 -78.4296875 121.921875 C-82.02747273 126.0577905 -85.73973135 130.07425099 -89.5 134.0625 C-90.18707031 134.79130371 -90.87414063 135.52010742 -91.58203125 136.27099609 C-96.32789381 141.28256623 -101.12973492 146.23425597 -106 151.125 C-106.58587891 151.71547119 -107.17175781 152.30594238 -107.77539062 152.91430664 C-111.37346472 156.49964689 -115.10569917 159.87382578 -118.94677734 163.19628906 C-122.48938225 166.30838954 -125.89306423 169.56643411 -129.3125 172.8125 C-139.28056278 182.22533844 -149.31288749 191.39854905 -160 200 C-170.92889169 208.87375025 -181.78588374 217.8031745 -192.07421875 227.41796875 C-194 229 -194 229 -196 229 C-195.84966309 227.87360107 -195.69932617 226.74720215 -195.54443359 225.58666992 C-194.81644331 220.12091782 -194.09541951 214.65425434 -193.375 209.1875 C-193.17292435 207.6591452 -193.17292435 207.6591452 -192.96676636 206.09991455 C-191.37449771 194.02963847 -189.85272061 181.95644371 -188.51171875 169.85546875 C-177.20161428 68.08120311 -177.20161428 68.08120311 -145.01171875 40.3359375 C-112.65022224 15.23584034 -65.88179726 10.09246025 -26.75 4.125 C-24.13139596 3.71948842 -21.51290575 3.31324108 -18.89453125 2.90625 C-12.59763222 1.9290713 -6.29942312 0.96076566 0 0 Z " fill="#191820" transform="translate(1544,235)"/>
<path d="M0 0 C7.15242267 7.15242267 5.38639083 24.33013582 5.39118958 33.68809509 C5.38249899 35.79076393 5.37318073 37.89343026 5.36328125 39.99609375 C5.36276114 42.20077006 5.36328466 44.40544683 5.36479187 46.61012268 C5.36470269 51.20833349 5.35438461 55.80636704 5.33618164 60.40454102 C5.31351033 66.25536497 5.31295404 72.10593036 5.31969929 77.95678616 C5.32306451 82.50309996 5.31636122 87.0493564 5.30657005 91.59565926 C5.30276065 93.75110638 5.30155183 95.90655992 5.3031559 98.06200981 C5.30488202 111.93075534 4.86002217 125.37762999 2 139 C-0.26399352 135.60400972 -0.24784534 134.45609781 -0.24050903 130.47615051 C-0.24325836 129.32770157 -0.24600769 128.17925262 -0.24884033 126.9960022 C-0.24164978 125.73508759 -0.23445923 124.47417297 -0.22705078 123.17504883 C-0.22648667 121.83472197 -0.22680322 120.49439449 -0.22793579 119.15406799 C-0.22851033 115.51381187 -0.21673973 111.87368716 -0.20278788 108.23346162 C-0.19029733 104.42979232 -0.18911134 100.62612011 -0.18673706 96.82243347 C-0.18051736 89.61889653 -0.16409992 82.41542019 -0.14403808 75.21190995 C-0.12169432 67.01127942 -0.11068949 58.81064601 -0.10064721 50.60999262 C-0.07973411 33.73996001 -0.04454862 16.86998641 0 0 Z " fill="#060C12" transform="translate(993,663)"/>
<path d="M0 0 C0.33 0 0.66 0 1 0 C1.86932635 7.92964248 2.13890957 15.75008869 2.11352539 23.72338867 C2.11367142 24.94419128 2.11381744 26.1649939 2.1139679 27.42279053 C2.11339517 30.73404216 2.10841854 34.04522958 2.10139394 37.35646987 C2.0950953 40.83044348 2.09455149 44.30441817 2.09336853 47.77839661 C2.09027426 54.34061711 2.08208681 60.90282073 2.07201904 67.46503383 C2.06079842 74.94277428 2.05533253 82.42051559 2.05032361 89.89826238 C2.03990238 105.26551799 2.02234022 120.63275681 2 136 C1.34 135.67 0.68 135.34 0 135 C-2.29106492 128.08149972 -2.28759917 120.78150597 -2.25878906 113.57446289 C-2.2622937 112.4787648 -2.26579834 111.38306671 -2.26940918 110.25416565 C-2.27815546 106.66026324 -2.27240203 103.0665604 -2.265625 99.47265625 C-2.26697378 96.95739199 -2.2689161 94.44212799 -2.27142334 91.92686462 C-2.27436507 86.66582229 -2.27030126 81.40483106 -2.26074219 76.14379883 C-2.24986598 70.08848612 -2.25338275 64.03330822 -2.264395 57.97799879 C-2.27461679 52.11965481 -2.27346829 46.26136144 -2.26763153 40.40301323 C-2.26630321 37.92524636 -2.26791391 35.44747602 -2.27259064 32.96971321 C-2.27770571 29.49802851 -2.26987561 26.02659759 -2.25878906 22.55493164 C-2.26283752 21.54420593 -2.26688599 20.53348022 -2.27105713 19.49212646 C-2.23177855 12.80680731 -1.39983874 6.53523685 0 0 Z " fill="#020B12" transform="translate(930,663)"/>
</svg>
